# xmcd
#
# Track frame offsets: 
#        150
#        14025
#        23986
#        35956
#        47991
#        60887
#        73503
#        85257
#        97990
#        109503
#        122076
#        133205
#        144764
#        162502
#        176287
#        190082
#        203206
#        212677
#        222900
#
# Disc length: 3182 seconds
#
# Revision: 4
# Processed by: cddbd v1.5.2PL0 Copyright (c) Steve Scherf et al.
# Submitted via: ExactAudioCopy v0.99pb4
#
DISCID=120c6c13
DTITLE=Various Artist - The Ultimate Blues Collection [CD2]
DYEAR=1997
DGENRE=Blues
TTITLE0=Howlin' Wolf - Riding In The Midnight
TTITLE1=Jimmy Reed - Ain't That Loving You Baby
TTITLE2=Billy Boy Arnold - I Wish You Would
TTITLE3=Little Willie John - Fever
TTITLE4=Roy Hawkins - The Thrill Is Gone
TTITLE5=Floyd Dixon - Cow Town
TTITLE6=Freddy King - I'm Tore Down
TTITLE7=Eddie Taylor - Train Fare
TTITLE8=John Lee Hooker - I Love You Honey
TTITLE9=Smokey Smothers - Come On Rock, Little Girl
TTITLE10=Ike Turner and His Kings Of Rhythm (featuring Lonnie 'The Cat' 
TTITLE10=/ I Ain't Drunk
TTITLE11=Lonnie Johnson - Me And My Crazy Self
TTITLE12=Lightnin' Hopkins - Found My Baby Crying
TTITLE13=Jimmy Reed - You Don't Have To Go
TTITLE14=Great Gates - Cold Blooded Woman
TTITLE15=Jack Dupree and Mr. Bear - Walking The Blues
TTITLE16=Rosco Gordon - Just A Little Bit
TTITLE17=Memphis Slim - The Comeback
TTITLE18=BB King - My Own Fault Darlin'
EXTD=
EXTT0=
EXTT1=
EXTT2=
EXTT3=
EXTT4=
EXTT5=
EXTT6=
EXTT7=
EXTT8=
EXTT9=
EXTT10=
EXTT11=
EXTT12=
EXTT13=
EXTT14=
EXTT15=
EXTT16=
EXTT17=
EXTT18=
PLAYORDER=
